<svg width="352" height="352" viewBox="0 0 352 352" fill="none" xmlns="http://www.w3.org/2000/svg">
<path d="M352 176C352 273.202 273.202 352 176 352C78.7979 352 0 273.202 0 176C0 78.7979 78.7979 0 176 0C273.202 0 352 78.7979 352 176Z" fill="#0066FF"/>
<path d="M342 166C342 257.679 267.679 332 176 332C84.3207 332 10 257.679 10 166C10 74.3207 84.3207 0 176 0C267.679 0 342 74.3207 342 166Z" fill="#00A3FF"/>
<path d="M332 176C332 262.156 262.156 332 176 332C89.8436 332 20 262.156 20 176C20 89.8436 89.8436 20 176 20C262.156 20 332 89.8436 332 176Z" fill="#00B2FF"/>
<path d="M312 176C312 256.634 246.634 322 166 322C85.3664 322 20 256.634 20 176C20 95.3664 85.3664 30 166 30C246.634 30 312 95.3664 312 176Z" fill="#00C2FF"/>
<path d="M312 176C312 251.111 251.111 312 176 312C100.889 312 40 251.111 40 176C40 100.889 100.889 40 176 40C251.111 40 312 100.889 312 176Z" fill="#00D1FF"/>
<path d="M292 176C292 245.588 235.588 302 166 302C96.4121 302 40 245.588 40 176C40 106.412 96.4121 50 166 50C235.588 50 292 106.412 292 176Z" fill="#00E0FF"/>
<path d="M292 166C292 230.065 240.065 282 176 282C111.935 282 60 230.065 60 166C60 101.935 111.935 50 176 50C240.065 50 292 101.935 292 166Z" fill="#00F0FF"/>
<path d="M282 176C282 234.542 234.542 282 176 282C117.458 282 70 234.542 70 176C70 117.458 117.458 70 176 70C234.542 70 282 117.458 282 176Z" fill="#00FFFF"/>
<path d="M272 166C272 219.019 229.019 262 176 262C122.981 262 80 219.019 80 166C80 112.981 122.981 70 176 70C229.019 70 272 112.981 272 166Z" fill="#00FFF0"/>
<path d="M262 176C262 223.496 223.496 262 176 262C128.504 262 90 223.496 90 176C90 128.504 128.504 90 176 90C223.496 90 262 128.504 262 176Z" fill="#00FFE0"/>
<path d="M242 176C242 217.974 207.974 252 166 252C124.026 252 90 217.974 90 176C90 134.026 124.026 100 166 100C207.974 100 242 134.026 242 176Z" fill="#00FFD1"/>
<path d="M242 176C242 212.451 212.451 242 176 242C139.549 242 110 212.451 110 176C110 139.549 139.549 110 176 110C212.451 110 242 139.549 242 176Z" fill="#00FFC2"/>
<path d="M222 176C222 206.928 196.928 232 166 232C135.072 232 110 206.928 110 176C110 145.072 135.072 120 166 120C196.928 120 222 145.072 222 176Z" fill="#00FFA3"/>
<path d="M222 176C222 201.405 201.405 222 176 222C150.595 222 130 201.405 130 176C130 150.595 150.595 130 176 130C201.405 130 222 150.595 222 176Z" fill="#00FF75"/>
<path d="M212 166C212 185.882 195.882 202 176 202C156.118 202 140 185.882 140 166C140 146.118 156.118 130 176 130C195.882 130 212 146.118 212 166Z" fill="#00FF38"/>
<path d="M202 176C202 190.359 190.359 202 176 202C161.641 202 150 190.359 150 176C150 161.641 161.641 150 176 150C190.359 150 202 161.641 202 176Z" fill="#61FF00"/>
<path d="M182 176C182 184.837 174.837 192 166 192C157.163 192 150 184.837 150 176C150 167.163 157.163 160 166 160C174.837 160 182 167.163 182 176Z" fill="#8FFF00"/>
<path d="M182 176C182 179.314 179.314 182 176 182C172.686 182 170 179.314 170 176C170 172.686 172.686 170 176 170C179.314 170 182 172.686 182 176Z" fill="#ADFF00"/>
</svg>
